<svg width="160" height="42" viewBox="0 0 160 42" fill="none" xmlns="http://www.w3.org/2000/svg">
<path d="M0.845703 16.7931C0.845703 15.1012 1.6371 13.5067 2.98463 12.4835L17.9356 1.13169C19.8698 -0.336946 22.5457 -0.336946 24.4799 1.13169L39.4309 12.4835C40.7784 13.5067 41.5698 15.1012 41.5698 16.7931V36.525C41.5698 39.5135 39.1472 41.9361 36.1587 41.9361H6.25681C3.26834 41.9361 0.845703 39.5135 0.845703 36.525V16.7931Z" fill="#FEC500"/>
<path d="M56.7415 15H54.4501V1.91373H59.4447C62.4164 1.91373 64.1529 3.41748 64.1529 5.99535C64.1529 7.74974 63.3294 9.00287 61.7898 9.62944L64.2782 15H61.7719L59.5521 10.1128H56.7415V15ZM56.7415 3.95454V8.08987H59.4447C60.8947 8.08987 61.754 7.32009 61.754 5.99535C61.754 4.68852 60.8947 3.95454 59.4447 3.95454H56.7415ZM67.7677 15H65.5478V1.91373H67.7677L71.9925 12.3326L76.2173 1.91373H78.473V15H76.2531V10.9721C76.2531 8.3405 76.2531 7.57072 76.3785 6.63982L73.0487 15H70.9363L67.6244 6.65772C67.7498 7.44541 67.7677 8.68064 67.7677 10.3097V15ZM91.565 9.64734H86.6957V15H84.4042V1.91373H92.4959V4.02615H86.6957V7.58862H91.565V9.64734ZM98.7993 6.15647H100.983V15H98.9604L98.7993 13.8185C98.2622 14.6599 97.1165 15.2327 95.935 15.2327C93.8942 15.2327 92.6948 13.8543 92.6948 11.6882V6.15647H94.8788V10.9184C94.8788 12.6011 95.5412 13.2814 96.7585 13.2814C98.1369 13.2814 98.7993 12.4758 98.7993 10.7931V6.15647ZM107.894 6.12067V8.14358H107.088C105.513 8.14358 104.528 8.98497 104.528 10.7035V15H102.344V6.17437H104.403L104.528 7.46331C104.904 6.58612 105.745 5.99535 106.927 5.99535C107.231 5.99535 107.536 6.03116 107.894 6.12067ZM110.661 15H108.477V6.15647H110.5L110.679 7.30219C111.234 6.4071 112.308 5.88794 113.507 5.88794C115.727 5.88794 116.873 7.26639 116.873 9.55783V15H114.689V10.077C114.689 8.59113 113.955 7.87505 112.827 7.87505C111.484 7.87505 110.661 8.80595 110.661 10.2381V15ZM119.216 4.38418C118.464 4.38418 117.873 3.79342 117.873 3.05944C117.873 2.32547 118.464 1.75261 119.216 1.75261C119.932 1.75261 120.522 2.32547 120.522 3.05944C120.522 3.79342 119.932 4.38418 119.216 4.38418ZM118.124 15V6.15647H120.308V15H118.124ZM124.676 15H122.492V7.98246H120.792V6.15647H122.492V3.39958H124.676V6.15647H126.395V7.98246H124.676V15ZM132.855 6.15647H135.039V15H133.016L132.855 13.8185C132.318 14.6599 131.172 15.2327 129.991 15.2327C127.95 15.2327 126.75 13.8543 126.75 11.6882V6.15647H128.934V10.9184C128.934 12.6011 129.597 13.2814 130.814 13.2814C132.192 13.2814 132.855 12.4758 132.855 10.7931V6.15647ZM141.949 6.12067V8.14358H141.144C139.568 8.14358 138.584 8.98497 138.584 10.7035V15H136.4V6.17437H138.458L138.584 7.46331C138.96 6.58612 139.801 5.99535 140.982 5.99535C141.287 5.99535 141.591 6.03116 141.949 6.12067ZM146.191 15.2327C143.56 15.2327 141.716 13.3172 141.716 10.5782C141.716 7.80344 143.524 5.88794 146.12 5.88794C148.769 5.88794 150.452 7.66023 150.452 10.4171V11.0795L143.793 11.0974C143.954 12.6549 144.777 13.4425 146.227 13.4425C147.427 13.4425 148.214 12.9771 148.465 12.1357H150.488C150.112 14.0691 148.501 15.2327 146.191 15.2327ZM146.138 7.67813C144.849 7.67813 144.061 8.3763 143.846 9.70104H148.286C148.286 8.48372 147.445 7.67813 146.138 7.67813ZM150.625 12.3147H152.701C152.719 13.0845 153.292 13.5678 154.295 13.5678C155.315 13.5678 155.87 13.1561 155.87 12.5116C155.87 12.0641 155.637 11.7419 154.85 11.5628L153.256 11.1869C151.663 10.8289 150.893 10.077 150.893 8.66273C150.893 6.92625 152.361 5.88794 154.402 5.88794C156.389 5.88794 157.732 7.03366 157.75 8.75224H155.673C155.655 8.00036 155.154 7.51701 154.312 7.51701C153.453 7.51701 152.952 7.91085 152.952 8.57322C152.952 9.07448 153.346 9.39671 154.098 9.57573L155.691 9.95167C157.177 10.2918 157.929 10.9721 157.929 12.3326C157.929 14.1228 156.407 15.2327 154.223 15.2327C152.021 15.2327 150.625 14.0512 150.625 12.3147Z" fill="#393939"/>
<path d="M56.6129 41H53.1753V21.3684H60.6681C65.1261 21.3684 67.7312 23.6243 67.7312 27.4915C67.7312 30.1234 66.4958 32.0033 64.1862 32.9433L67.9191 41H64.1593L60.8292 33.6684H56.6129V41ZM56.6129 24.43V30.6337H60.6681C62.8434 30.6337 64.1325 29.4789 64.1325 27.4915C64.1325 25.5311 62.8434 24.43 60.6681 24.43H56.6129ZM82.0163 41H69.8238V21.3684H82.0163V24.5374H73.2613V29.5863H81.1032V32.621H73.2613V37.831H82.0163V41ZM87.7842 41H84.4004V21.3684H87.8111L97.0226 35.2797V21.3684H100.406V41H97.0226L87.7842 27.0887V41ZM101.691 24.5374V21.3684H116.622V24.5374H110.875V41H107.438V24.5374H101.691ZM117.842 41H114.27L121.36 21.3684H124.878L131.968 41H128.343L126.758 36.4614H119.426L117.842 41ZM122.676 27.223L120.447 33.5609H125.764L123.509 27.223C123.347 26.7127 123.159 26.1219 123.106 25.7191C123.025 26.095 122.864 26.6859 122.676 27.223ZM136.525 21.3684V37.831H144.742V41H133.087V21.3684H136.525ZM144.385 26.847C144.385 23.4095 147.232 21.0193 151.368 21.0193C155.342 21.0193 157.867 23.2215 157.974 26.7664H154.537C154.456 25.0745 153.248 24.0809 151.314 24.0809C149.192 24.0809 147.823 25.1014 147.823 26.7396C147.823 28.1361 148.575 28.9149 150.213 29.2909L153.301 29.9623C156.658 30.6874 158.296 32.4061 158.296 35.3334C158.296 38.9858 155.45 41.3491 151.126 41.3491C146.936 41.3491 144.197 39.1201 144.117 35.602H147.554C147.581 37.267 148.924 38.2607 151.126 38.2607C153.409 38.2607 154.859 37.267 154.859 35.6288C154.859 34.3129 154.187 33.5341 152.576 33.185L149.461 32.4867C146.131 31.7616 144.385 29.8548 144.385 26.847Z" fill="#393939"/>
<path d="M33.3753 23.543C30.5588 23.543 28.267 25.8341 28.267 28.6497V29.5823C27.1362 29.1783 24.9484 28.6497 21.2431 28.6497C17.5375 28.6497 15.3505 29.1783 14.2191 29.5823V28.6497C14.2191 25.8341 11.9274 23.543 9.11067 23.543C7.35018 23.543 5.91797 24.9748 5.91797 26.7347C5.91797 28.0274 6.68926 29.1847 7.88406 29.6819C8.24169 29.832 8.47209 30.1785 8.47209 30.5647L9.11067 33.118C9.11067 35.4098 10.8469 37.3024 13.0735 37.5557C12.5493 37.806 12.1839 38.337 12.1839 38.9563C12.1839 39.8154 12.8814 40.5125 13.7407 40.5125C14.6002 40.5125 15.2975 39.8154 15.2975 38.9563C15.2975 38.3601 14.9578 37.848 14.4648 37.5864H28.023C27.5302 37.8474 27.1904 38.3594 27.1904 38.9563C27.1904 39.8154 27.8876 40.5125 28.7472 40.5125C29.6067 40.5125 30.3039 39.8154 30.3039 38.9563C30.3039 38.337 29.9387 37.806 29.4145 37.5557C31.6392 37.3024 33.3753 35.4098 33.3753 33.118L34.0139 30.5647C34.0139 30.1779 34.2444 29.832 34.6021 29.6819C35.7967 29.1853 36.5682 28.0274 36.5682 26.7347C36.5682 24.9748 35.1358 23.543 33.3753 23.543Z" fill="#030303"/>
<path d="M15.9753 27.1573C17.3041 26.9148 19.034 26.7347 21.2433 26.7347C23.4527 26.7347 25.1825 26.9148 26.5113 27.1573C27.0132 24.8466 28.6594 22.9608 30.8222 22.1138V18.7064C30.8222 13.4185 26.5337 9.13135 21.2433 9.13135C15.9535 9.13135 11.665 13.4185 11.665 18.7064V22.1146C13.8278 22.9616 15.4734 24.8472 15.9753 27.1573Z" fill="#030303"/>
</svg>
